{
    "accessors": {
        "accessor_191": {
            "bufferView": "bufferView_229",
            "byteOffset": 0,
            "byteStride": 0,
            "componentType": 5123,
            "count": 654,
            "type": "SCALAR"
        },
        "accessor_194": {
            "bufferView": "bufferView_229",
            "byteOffset": 1308,
            "byteStride": 0,
            "componentType": 5123,
            "count": 90,
            "type": "SCALAR"
        },
        "accessor_197": {
            "bufferView": "bufferView_229",
            "byteOffset": 1488,
            "byteStride": 0,
            "componentType": 5123,
            "count": 1602,
            "type": "SCALAR"
        },
        "accessor_200": {
            "bufferView": "bufferView_229",
            "byteOffset": 4692,
            "byteStride": 0,
            "componentType": 5123,
            "count": 342,
            "type": "SCALAR"
        },
        "accessor_203": {
            "bufferView": "bufferView_229",
            "byteOffset": 5376,
            "byteStride": 0,
            "componentType": 5123,
            "count": 69,
            "type": "SCALAR"
        },
        "accessor_206": {
            "bufferView": "bufferView_229",
            "byteOffset": 5514,
            "byteStride": 0,
            "componentType": 5123,
            "count": 6,
            "type": "SCALAR"
        },
        "accessor_209": {
            "bufferView": "bufferView_229",
            "byteOffset": 5526,
            "byteStride": 0,
            "componentType": 5123,
            "count": 561,
            "type": "SCALAR"
        },
        "accessor_212": {
            "bufferView": "bufferView_229",
            "byteOffset": 6648,
            "byteStride": 0,
            "componentType": 5123,
            "count": 327,
            "type": "SCALAR"
        },
        "accessor_215": {
            "bufferView": "bufferView_229",
            "byteOffset": 7302,
            "byteStride": 0,
            "componentType": 5123,
            "count": 78,
            "type": "SCALAR"
        },
        "accessor_218": {
            "bufferView": "bufferView_229",
            "byteOffset": 7458,
            "byteStride": 0,
            "componentType": 5123,
            "count": 123,
            "type": "SCALAR"
        },
        "accessor_221": {
            "bufferView": "bufferView_229",
            "byteOffset": 7704,
            "byteStride": 0,
            "componentType": 5123,
            "count": 12,
            "type": "SCALAR"
        },
        "accessor_223": {
            "bufferView": "bufferView_230",
            "byteOffset": 0,
            "byteStride": 12,
            "componentType": 5126,
            "count": 3864,
            "max": [
                6126.33,
                1764.7,
                2247.21
            ],
            "min": [
                -6126.33,
                -1764.7,
                -2247.21
            ],
            "type": "VEC3"
        },
        "accessor_225": {
            "bufferView": "bufferView_230",
            "byteOffset": 46368,
            "byteStride": 12,
            "componentType": 5126,
            "count": 3864,
            "max": [
                0.99889,
                0.998891,
                1
            ],
            "min": [
                -0.99889,
                -0.999047,
                -1
            ],
            "type": "VEC3"
        },
        "accessor_227": {
            "bufferView": "bufferView_230",
            "byteOffset": 92736,
            "byteStride": 8,
            "componentType": 5126,
            "count": 3864,
            "max": [
                137.817,
                56.9397
            ],
            "min": [
                -34.0373,
                -96.7743
            ],
            "type": "VEC2"
        }
    },
    "animations": {},
    "asset": {
        "generator": "collada2gltf@d78daf1e7950e6c22fe6bec1d07965e8a302e90d",
        "premultipliedAlpha": true,
        "profile": {
            "api": "WebGL",
            "version": "1.0.2"
        },
        "version": 1
    },
    "bufferViews": {
        "bufferView_229": {
            "buffer": "3d-model2",
            "byteLength": 7728,
            "byteOffset": 0,
            "target": 34963
        },
        "bufferView_230": {
            "buffer": "3d-model2",
            "byteLength": 123648,
            "byteOffset": 7728,
            "target": 34962
        }
    },
    "buffers": {
        "3d-model2": {
            "byteLength": 131376,
            "type": "arraybuffer",
            "uri": "data:application/octet-stream;base64,"
        }
    },
    "materials": {
        "dbl_Layer0_001-effect": {
            "name": "dbl_Layer0_001",
            "technique": "technique0",
            "values": {
                "ambient": [
                    0,
                    0,
                    0,
                    1
                ],
                "diffuse": [
                    0.647044,
                    0.787661,
                    0.890196,
                    1
                ],
                "emission": [
                    0,
                    0,
                    0,
                    1
                ],
                "shininess": 2,
                "specular": [
                    0.233892,
                    0.285563,
                    0.32224,
                    1
                ]
            }
        },
        "dbl_Layer0_002-effect": {
            "name": "dbl_Layer0_002",
            "technique": "technique0",
            "values": {
                "ambient": [
                    0,
                    0,
                    0,
                    1
                ],
                "diffuse": [
                    0.536855,
                    0.890196,
                    0.86461,
                    1
                ],
                "emission": [
                    0,
                    0,
                    0,
                    1
                ],
                "shininess": 2,
                "specular": [
                    0.154735,
                    0.257459,
                    0.248467,
                    1
                ]
            }
        },
        "dbl_Layer0_003-effect": {
            "name": "dbl_Layer0_003",
            "technique": "technique0",
            "values": {
                "ambient": [
                    0,
                    0,
                    0,
                    1
                ],
                "diffuse": [
                    0.477054,
                    0.839394,
                    0.890196,
                    1
                ],
                "emission": [
                    0,
                    0,
                    0,
                    1
                ],
                "shininess": 2,
                "specular": [
                    0.161572,
                    0.285563,
                    0.301914,
                    1
                ]
            }
        },
        "dbl_Layer0_004-effect": {
            "name": "dbl_Layer0_004",
            "technique": "technique0",
            "values": {
                "ambient": [
                    0,
                    0,
                    0,
                    1
                ],
                "diffuse": [
                    0.571493,
                    0.814161,
                    0.890196,
                    1
                ],
                "emission": [
                    0,
                    0,
                    0,
                    1
                ],
                "shininess": 2,
                "specular": [
                    0.200989,
                    0.285563,
                    0.315379,
                    1
                ]
            }
        },
        "dbl_Layer0_005-effect": {
            "name": "dbl_Layer0_005",
            "technique": "technique0",
            "values": {
                "ambient": [
                    0,
                    0,
                    0,
                    1
                ],
                "diffuse": [
                    0.578642,
                    0.890196,
                    0.890196,
                    1
                ],
                "emission": [
                    0,
                    0,
                    0,
                    1
                ],
                "shininess": 2,
                "specular": [
                    0.193215,
                    0.29531,
                    0.29531,
                    1
                ]
            }
        },
        "dbl_Layer0_006-effect": {
            "name": "dbl_Layer0_006",
            "technique": "technique0",
            "values": {
                "ambient": [
                    0,
                    0,
                    0,
                    1
                ],
                "diffuse": [
                    0.620546,
                    0.890196,
                    0.864594,
                    1
                ],
                "emission": [
                    0,
                    0,
                    0,
                    1
                ],
                "shininess": 2,
                "specular": [
                    0.214345,
                    0.305248,
                    0.298601,
                    1
                ]
            }
        },
        "dbl_Layer0_007-effect": {
            "name": "dbl_Layer0_007",
            "technique": "technique0",
            "values": {
                "ambient": [
                    0,
                    0,
                    0,
                    1
                ],
                "diffuse": [
                    0.571493,
                    0.890196,
                    0.814161,
                    1
                ],
                "emission": [
                    0,
                    0,
                    0,
                    1
                ],
                "shininess": 2,
                "specular": [
                    0.231038,
                    0.361528,
                    0.329188,
                    1
                ]
            }
        },
        "dbl_Layer0_008-effect": {
            "name": "dbl_Layer0_008",
            "technique": "technique0",
            "values": {
                "ambient": [
                    0,
                    0,
                    0,
                    1
                ],
                "diffuse": [
                    0.531568,
                    0.890196,
                    0.814315,
                    1
                ],
                "emission": [
                    0,
                    0,
                    0,
                    1
                ],
                "shininess": 2,
                "specular": [
                    0.154735,
                    0.260498,
                    0.23966,
                    1
                ]
            }
        },
        "dbl_Layer0_009-effect": {
            "name": "dbl_Layer0_009",
            "technique": "technique0",
            "values": {
                "ambient": [
                    0,
                    0,
                    0,
                    1
                ],
                "diffuse": [
                    0.414403,
                    0.890196,
                    0.765594,
                    1
                ],
                "emission": [
                    0,
                    0,
                    0,
                    1
                ],
                "shininess": 2,
                "specular": [
                    0.148069,
                    0.315379,
                    0.272862,
                    1
                ]
            }
        },
        "dbl_Layer0_010-effect": {
            "name": "dbl_Layer0_010",
            "technique": "technique0",
            "values": {
                "ambient": [
                    0,
                    0,
                    0,
                    1
                ],
                "diffuse": [
                    0.325809,
                    0.890196,
                    0.83945,
                    1
                ],
                "emission": [
                    0,
                    0,
                    0,
                    1
                ],
                "shininess": 2,
                "specular": [
                    0.10793,
                    0.29531,
                    0.276006,
                    1
                ]
            }
        },
        "dbl_Layer0_011-effect": {
            "name": "dbl_Layer0_011",
            "technique": "technique0",
            "values": {
                "ambient": [
                    0,
                    0,
                    0,
                    1
                ],
                "diffuse": [
                    0.571493,
                    0.890196,
                    0.814161,
                    1
                ],
                "emission": [
                    0,
                    0,
                    0,
                    1
                ],
                "shininess": 2,
                "specular": [
                    0.217077,
                    0.339771,
                    0.31198,
                    1
                ]
            }
        }
    },
    "meshes": {
        "Layer0_001Mesh-mesh": {
            "name": "Layer0_001Mesh",
            "primitives": [
                {
                    "attributes": {
                        "NORMAL": "accessor_225",
                        "POSITION": "accessor_223",
                        "TEXCOORD_0": "accessor_227"
                    },
                    "indices": "accessor_191",
                    "material": "dbl_Layer0_001-effect",
                    "mode": 4
                },
                {
                    "attributes": {
                        "NORMAL": "accessor_225",
                        "POSITION": "accessor_223",
                        "TEXCOORD_0": "accessor_227"
                    },
                    "indices": "accessor_194",
                    "material": "dbl_Layer0_002-effect",
                    "mode": 4
                },
                {
                    "attributes": {
                        "NORMAL": "accessor_225",
                        "POSITION": "accessor_223",
                        "TEXCOORD_0": "accessor_227"
                    },
                    "indices": "accessor_197",
                    "material": "dbl_Layer0_003-effect",
                    "mode": 4
                },
                {
                    "attributes": {
                        "NORMAL": "accessor_225",
                        "POSITION": "accessor_223",
                        "TEXCOORD_0": "accessor_227"
                    },
                    "indices": "accessor_200",
                    "material": "dbl_Layer0_004-effect",
                    "mode": 4
                },
                {
                    "attributes": {
                        "NORMAL": "accessor_225",
                        "POSITION": "accessor_223",
                        "TEXCOORD_0": "accessor_227"
                    },
                    "indices": "accessor_203",
                    "material": "dbl_Layer0_005-effect",
                    "mode": 4
                },
                {
                    "attributes": {
                        "NORMAL": "accessor_225",
                        "POSITION": "accessor_223",
                        "TEXCOORD_0": "accessor_227"
                    },
                    "indices": "accessor_206",
                    "material": "dbl_Layer0_006-effect",
                    "mode": 4
                },
                {
                    "attributes": {
                        "NORMAL": "accessor_225",
                        "POSITION": "accessor_223",
                        "TEXCOORD_0": "accessor_227"
                    },
                    "indices": "accessor_209",
                    "material": "dbl_Layer0_007-effect",
                    "mode": 4
                },
                {
                    "attributes": {
                        "NORMAL": "accessor_225",
                        "POSITION": "accessor_223",
                        "TEXCOORD_0": "accessor_227"
                    },
                    "indices": "accessor_212",
                    "material": "dbl_Layer0_008-effect",
                    "mode": 4
                },
                {
                    "attributes": {
                        "NORMAL": "accessor_225",
                        "POSITION": "accessor_223",
                        "TEXCOORD_0": "accessor_227"
                    },
                    "indices": "accessor_215",
                    "material": "dbl_Layer0_009-effect",
                    "mode": 4
                },
                {
                    "attributes": {
                        "NORMAL": "accessor_225",
                        "POSITION": "accessor_223",
                        "TEXCOORD_0": "accessor_227"
                    },
                    "indices": "accessor_218",
                    "material": "dbl_Layer0_010-effect",
                    "mode": 4
                },
                {
                    "attributes": {
                        "NORMAL": "accessor_225",
                        "POSITION": "accessor_223",
                        "TEXCOORD_0": "accessor_227"
                    },
                    "indices": "accessor_221",
                    "material": "dbl_Layer0_011-effect",
                    "mode": 4
                }
            ]
        }
    },
    "nodes": {
        "Layer0_001": {
            "children": [],
            "matrix": [
                -0.000997911,
                -6.46016e-005,
                0,
                0,
                6.46016e-005,
                -0.000997911,
                4.37114e-011,
                0,
                -2.82382e-012,
                4.36201e-011,
                0.001,
                0,
                0,
                -9.82286e-008,
                2.24721,
                1
            ],
            "meshes": [
                "Layer0_001Mesh-mesh"
            ],
            "name": "Layer0_001"
        },
        "node_1": {
            "children": [
                "Layer0_001"
            ],
            "matrix": [
                1,
                0,
                0,
                0,
                0,
                0,
                -1,
                0,
                0,
                1,
                0,
                0,
                0,
                0,
                0,
                1
            ],
            "name": "Y_UP_Transform"
        }
    },
    "programs": {
        "program_0": {
            "attributes": [
                "a_normal",
                "a_position"
            ],
            "fragmentShader": "3d-model20FS",
            "vertexShader": "3d-model20VS"
        }
    },
    "scene": "defaultScene",
    "scenes": {
        "defaultScene": {
            "nodes": [
                "node_1"
            ]
        }
    },
    "shaders": {
        "3d-model20FS": {
            "type": 35632,
            "uri": "data:text/plain;base64,"
        },
        "3d-model20VS": {
            "type": 35633,
            "uri": "data:text/plain;base64,"
        }
    },
    "skins": {},
    "techniques": {
        "technique0": {
            "attributes": {
                "a_normal": "normal",
                "a_position": "position"
            },
            "parameters": {
                "ambient": {
                    "type": 35666
                },
                "diffuse": {
                    "type": 35666
                },
                "emission": {
                    "type": 35666
                },
                "modelViewMatrix": {
                    "semantic": "MODELVIEW",
                    "type": 35676
                },
                "normal": {
                    "semantic": "NORMAL",
                    "type": 35665
                },
                "normalMatrix": {
                    "semantic": "MODELVIEWINVERSETRANSPOSE",
                    "type": 35675
                },
                "position": {
                    "semantic": "POSITION",
                    "type": 35665
                },
                "projectionMatrix": {
                    "semantic": "PROJECTION",
                    "type": 35676
                },
                "shininess": {
                    "type": 5126
                },
                "specular": {
                    "type": 35666
                }
            },
            "program": "program_0",
            "states": {
                "enable": [
                    2929,
                    2884
                ]
            },
            "uniforms": {
                "u_ambient": "ambient",
                "u_diffuse": "diffuse",
                "u_emission": "emission",
                "u_modelViewMatrix": "modelViewMatrix",
                "u_normalMatrix": "normalMatrix",
                "u_projectionMatrix": "projectionMatrix",
                "u_shininess": "shininess",
                "u_specular": "specular"
            }
        }
    }
}